<svg width="120" height="129" viewBox="0 0 120 129" fill="none" xmlns="http://www.w3.org/2000/svg">
<ellipse cx="14.3137" cy="36.8148" rx="8.36433" ry="8.81483" fill="#2F1155"/>
<ellipse cx="28.0204" cy="26.2926" rx="6.27325" ry="6.61113" fill="#2F1155"/>
<ellipse cx="40.9851" cy="20.563" rx="4.18216" ry="4.40742" fill="#2F1155"/>
<ellipse cx="49.7677" cy="19.2408" rx="2.09108" ry="2.20371" fill="#2F1155"/>
<ellipse cx="49.7677" cy="19.2408" rx="2.09108" ry="2.20371" fill="#2F1155"/>
<ellipse cx="56.25" cy="19.0204" rx="1.04554" ry="1.10185" fill="#2F1155"/>
<ellipse cx="5.22779" cy="81.6058" rx="1.04554" ry="1.10185" fill="#2F1155"/>
<ellipse cx="4.60036" cy="75.6557" rx="2.09108" ry="2.20371" fill="#2F1155"/>
<ellipse cx="4.18216" cy="66.4002" rx="4.18216" ry="4.40742" fill="#2F1155"/>
<ellipse cx="6.27325" cy="52.7372" rx="6.27325" ry="6.61113" fill="#2F1155"/>
<ellipse rx="8.8103" ry="8.3691" transform="matrix(-0.0964363 -0.995339 0.99426 -0.106988 32.7104 111.765)" fill="#2F1155"/>
<ellipse rx="6.60773" ry="6.27682" transform="matrix(-0.0964363 -0.995339 0.99426 -0.106988 20.9072 98.4153)" fill="#2F1155"/>
<ellipse rx="4.40515" ry="4.18455" transform="matrix(-0.0964363 -0.995339 0.99426 -0.106988 14.1815 85.405)" fill="#2F1155"/>
<ellipse rx="2.20258" ry="2.09227" transform="matrix(-0.0964363 -0.995339 0.99426 -0.106988 12.0412 76.3316)" fill="#2F1155"/>
<ellipse rx="2.20258" ry="2.09227" transform="matrix(-0.0964363 -0.995339 0.99426 -0.106988 12.0412 76.3316)" fill="#2F1155"/>
<ellipse rx="1.10129" ry="1.04614" transform="matrix(-0.0964363 -0.995339 0.99426 -0.106988 11.1747 69.5578)" fill="#2F1155"/>
<ellipse rx="1.10129" ry="1.04614" transform="matrix(-0.0964363 -0.995339 0.99426 -0.106988 75.4371 116.693)" fill="#2F1155"/>
<ellipse rx="2.20258" ry="2.09227" transform="matrix(-0.0964363 -0.995339 0.99426 -0.106988 69.884 117.955)" fill="#2F1155"/>
<ellipse rx="4.40515" ry="4.18455" transform="matrix(-0.0964363 -0.995339 0.99426 -0.106988 61.1896 119.334)" fill="#2F1155"/>
<ellipse rx="6.60773" ry="6.27682" transform="matrix(-0.0964363 -0.995339 0.99426 -0.106988 48.0794 118.529)" fill="#2F1155"/>
<ellipse rx="8.36465" ry="8.8145" transform="matrix(-0.997725 -0.0674168 0.0662877 -0.997801 99.6197 96.0281)" fill="#2F1155"/>
<ellipse rx="6.27349" ry="6.61088" transform="matrix(-0.997725 -0.0674168 0.0662877 -0.997801 85.246 105.603)" fill="#2F1155"/>
<ellipse rx="4.18232" ry="4.40725" transform="matrix(-0.997725 -0.0674168 0.0662877 -0.997801 71.9305 110.445)" fill="#2F1155"/>
<ellipse rx="2.09116" ry="2.20363" transform="matrix(-0.997725 -0.0674168 0.0662877 -0.997801 63.0801 111.173)" fill="#2F1155"/>
<ellipse rx="2.09116" ry="2.20363" transform="matrix(-0.997725 -0.0674168 0.0662877 -0.997801 63.0801 111.173)" fill="#2F1155"/>
<ellipse rx="1.04558" ry="1.10181" transform="matrix(-0.997725 -0.0674168 0.0662877 -0.997801 56.5976 110.955)" fill="#2F1155"/>
<ellipse rx="1.04558" ry="1.10181" transform="matrix(-0.997725 -0.0674168 0.0662877 -0.997801 111.654 51.9499)" fill="#2F1155"/>
<ellipse rx="2.09116" ry="2.20363" transform="matrix(-0.997725 -0.0674168 0.0662877 -0.997801 111.886 57.9289)" fill="#2F1155"/>
<ellipse rx="4.18232" ry="4.40725" transform="matrix(-0.997725 -0.0674168 0.0662877 -0.997801 111.69 67.192)" fill="#2F1155"/>
<ellipse rx="6.27349" ry="6.61088" transform="matrix(-0.997725 -0.0674168 0.0662877 -0.997801 108.698 80.6835)" fill="#2F1155"/>
<ellipse rx="8.80998" ry="8.36941" transform="matrix(0.0302455 0.999651 -0.999091 0.039715 86.2322 20.005)" fill="#2F1155"/>
<ellipse rx="6.60748" ry="6.27706" transform="matrix(0.0302455 0.999651 -0.999091 0.039715 97.1242 34.121)" fill="#2F1155"/>
<ellipse rx="4.40499" ry="4.18471" transform="matrix(0.0302455 0.999651 -0.999091 0.039715 102.972 47.5556)" fill="#2F1155"/>
<ellipse rx="2.20249" ry="2.09235" transform="matrix(0.0302455 0.999651 -0.999091 0.039715 104.506 56.753)" fill="#2F1155"/>
<ellipse rx="2.20249" ry="2.09235" transform="matrix(0.0302455 0.999651 -0.999091 0.039715 104.506 56.753)" fill="#2F1155"/>
<ellipse rx="1.10125" ry="1.04618" transform="matrix(0.0302455 0.999651 -0.999091 0.039715 104.922 63.5701)" fill="#2F1155"/>
<ellipse rx="1.10125" ry="1.04618" transform="matrix(0.0302455 0.999651 -0.999091 0.039715 43.9277 12.2079)" fill="#2F1155"/>
<ellipse rx="2.20249" ry="2.09235" transform="matrix(0.0302455 0.999651 -0.999091 0.039715 49.552 11.323)" fill="#2F1155"/>
<ellipse rx="4.40499" ry="4.18471" transform="matrix(0.0302455 0.999651 -0.999091 0.039715 58.3183 10.5337)" fill="#2F1155"/>
<ellipse rx="6.60748" ry="6.27706" transform="matrix(0.0302455 0.999651 -0.999091 0.039715 71.346 12.2202)" fill="#2F1155"/>
<path d="M68.3435 53.66C69.0435 52.26 69.3935 50.9067 69.3935 49.6C69.3935 48.2933 69.3235 47.29 69.1835 46.59C69.0435 45.8433 68.8102 45.19 68.4835 44.63C67.7835 43.4167 66.7335 42.81 65.3335 42.81C63.6069 42.81 62.0435 43.44 60.6435 44.7C59.1502 46.0067 58.4035 47.6867 58.4035 49.74C58.4035 51.0467 58.8468 52.2133 59.7335 53.24C60.6669 54.22 61.8335 55.1767 63.2335 56.11C64.6335 57.0433 66.1269 57.9767 67.7135 58.91C69.3002 59.8433 70.7935 60.87 72.1935 61.99C75.4135 64.5567 77.0235 67.5667 77.0235 71.02C77.0235 73.3533 76.3935 75.5233 75.1335 77.53C73.9202 79.49 72.2869 81.1933 70.2335 82.64C65.7535 85.8133 60.5502 87.4 54.6235 87.4C49.8168 87.4 46.1768 86.63 43.7035 85.09C41.2302 83.5033 39.9935 81.52 39.9935 79.14C39.9935 74.8933 41.6502 72.2333 44.9635 71.16C45.8968 70.8333 47.0635 70.67 48.4635 70.67C49.9102 70.67 51.4502 70.9733 53.0835 71.58C52.3368 73.4933 51.9635 75.3133 51.9635 77.04C51.9635 80.7733 53.2935 82.64 55.9535 82.64C57.6802 82.64 59.2435 82.01 60.6435 80.75C62.0902 79.49 62.8135 78.16 62.8135 76.76C62.8135 75.3133 62.3469 74.0767 61.4135 73.05C60.5268 72.0233 59.4068 71.1133 58.0535 70.32C56.7002 69.48 55.2302 68.6633 53.6435 67.87C52.1035 67.0767 50.6568 66.12 49.3035 65C46.1302 62.4333 44.5435 59.0967 44.5435 54.99C44.5435 52.33 45.1968 49.9733 46.5035 47.92C47.8102 45.82 49.5135 44.07 51.6135 42.67C55.8135 39.8233 60.4802 38.4 65.6135 38.4C70.7935 38.4 74.6202 39.17 77.0935 40.71C79.6135 42.25 80.8735 44.3267 80.8735 46.94C80.8735 49.2267 79.9869 51.0933 78.2135 52.54C76.6735 53.7533 74.9702 54.36 73.1035 54.36C71.2369 54.36 69.6502 54.1267 68.3435 53.66Z" fill="#2F1155"/>
</svg>
