<svg width="28" height="28" viewBox="0 0 28 28" fill="none" xmlns="http://www.w3.org/2000/svg">
<path d="M14 7.51343V11.3984" stroke="white" stroke-width="2" stroke-miterlimit="10" stroke-linecap="round"/>
<path d="M14.0233 2.33325C9.73 2.33325 6.25334 5.80992 6.25334 10.1033V12.5533C6.25334 13.3466 5.92667 14.5366 5.51834 15.2133L4.03667 17.6866C3.12667 19.2149 3.75667 20.9183 5.43667 21.4783C11.0133 23.3333 17.045 23.3333 22.6217 21.4783C24.1967 20.9533 24.8733 19.1099 24.0217 17.6866L22.54 15.2133C22.1317 14.5366 21.805 13.3349 21.805 12.5533V10.1033C21.7933 5.83325 18.2933 2.33325 14.0233 2.33325Z" stroke="white" stroke-width="2" stroke-miterlimit="10" stroke-linecap="round"/>
<path d="M17.885 21.9568C17.885 24.0918 16.135 25.8418 14 25.8418C12.9383 25.8418 11.9583 25.3985 11.2583 24.6985C10.5583 23.9985 10.115 23.0185 10.115 21.9568" stroke="white" stroke-width="2" stroke-miterlimit="10"/>
</svg>
