<svg width="28" height="28" viewBox="0 0 28 28" fill="none" xmlns="http://www.w3.org/2000/svg">
<path d="M20.1915 14.1684L20.1916 14.1684L20.191 14.1625C20.1361 13.5857 20.3552 13.0442 20.7425 12.6661L20.7426 12.6662L20.7515 12.6571C21.0884 12.3111 21.5539 12.1083 22.0733 12.1083H24.4899C24.8773 12.1261 25.1666 12.4352 25.1666 12.7983V15.2016C25.1666 15.5647 24.8773 15.8738 24.4899 15.8916H22.2133C21.1739 15.8916 20.2718 15.1317 20.1915 14.1684Z" stroke="white"/>
<path d="M17.4451 14.3932L17.4452 14.3938C17.6557 16.7882 19.7506 18.6417 22.2133 18.6417H23.8816C23.912 18.6417 23.9372 18.6543 23.9527 18.6705C23.9601 18.6781 23.9639 18.6852 23.9657 18.6903C23.9673 18.6947 23.9685 18.7001 23.9676 18.7086L23.9675 18.7086L23.9669 18.7153C23.837 20.1602 23.2545 21.3272 22.3525 22.1338C21.4498 22.941 20.1939 23.4167 18.6666 23.4167H8.16659C5.22273 23.4167 2.83325 21.0272 2.83325 18.0834V9.91671C2.83325 8.43195 3.27957 7.20428 4.04232 6.30938C4.80406 5.41568 5.90813 4.82212 7.28384 4.64948L7.28387 4.64967L7.29761 4.64756C7.57424 4.605 7.86375 4.58337 8.16659 4.58337H18.6666C18.9596 4.58337 19.2194 4.59491 19.4594 4.6349L19.4714 4.6369L19.4834 4.63831C22.0336 4.93708 23.7313 6.68255 23.967 9.28512L23.9669 9.28513L23.9676 9.29149C23.9685 9.29996 23.9673 9.30542 23.9657 9.30983C23.9639 9.31492 23.9601 9.32196 23.9527 9.32962C23.9372 9.34579 23.912 9.35837 23.8816 9.35837H22.0733C20.8261 9.35837 19.6586 9.83898 18.8143 10.7068C17.8229 11.6752 17.3275 13.0338 17.4451 14.3932ZM8.16659 11.875H15.1666C15.9211 11.875 16.5416 11.2545 16.5416 10.5C16.5416 9.74557 15.9211 9.12504 15.1666 9.12504H8.16659C7.41211 9.12504 6.79159 9.74557 6.79159 10.5C6.79159 11.2545 7.41211 11.875 8.16659 11.875Z" stroke="white"/>
</svg>
