<svg width="29" height="28" viewBox="0 0 29 28" fill="none" xmlns="http://www.w3.org/2000/svg">
<path d="M26.1666 12.7983V15.2016C26.1666 15.8433 25.6533 16.3683 24.9999 16.3916H22.7133C21.4533 16.3916 20.2983 15.4699 20.1933 14.2099C20.1233 13.4749 20.4033 12.7866 20.8933 12.3083C21.3249 11.8649 21.9199 11.6083 22.5733 11.6083H24.9999C25.6533 11.6316 26.1666 12.1566 26.1666 12.7983Z" fill="white"/>
<path d="M24.3816 18.1417H22.7133C20.4966 18.1417 18.6299 16.4734 18.4433 14.35C18.3383 13.1367 18.7816 11.9234 19.6683 11.06C20.4149 10.29 21.4533 9.85837 22.5733 9.85837H24.3816C24.7199 9.85837 24.9999 9.57838 24.9649 9.24004C24.7083 6.40504 22.8299 4.46837 20.0416 4.14171C19.7616 4.09504 19.4699 4.08337 19.1666 4.08337H8.66659C8.33992 4.08337 8.02492 4.10671 7.72159 4.15337C4.74659 4.52671 2.83325 6.74337 2.83325 9.91671V18.0834C2.83325 21.3034 5.44659 23.9167 8.66659 23.9167H19.1666C22.4333 23.9167 24.6849 21.875 24.9649 18.76C24.9999 18.4217 24.7199 18.1417 24.3816 18.1417ZM15.6666 11.375H8.66659C8.18825 11.375 7.79159 10.9784 7.79159 10.5C7.79159 10.0217 8.18825 9.62504 8.66659 9.62504H15.6666C16.1449 9.62504 16.5416 10.0217 16.5416 10.5C16.5416 10.9784 16.1449 11.375 15.6666 11.375Z" fill="white"/>
</svg>
