<svg width="22" height="22" viewBox="0 0 22 22" fill="none" xmlns="http://www.w3.org/2000/svg">
<path d="M0.71875 7.5H2.25C2.37031 7.5 2.46875 7.40156 2.46875 7.28125V2.46875H7.28125C7.40156 2.46875 7.5 2.37031 7.5 2.25V0.71875C7.5 0.598437 7.40156 0.5 7.28125 0.5H2.35938C1.33125 0.5 0.5 1.33125 0.5 2.35938V7.28125C0.5 7.40156 0.598437 7.5 0.71875 7.5ZM14.7188 2.46875H19.5312V7.28125C19.5312 7.40156 19.6297 7.5 19.75 7.5H21.2812C21.4016 7.5 21.5 7.40156 21.5 7.28125V2.35938C21.5 1.33125 20.6688 0.5 19.6406 0.5H14.7188C14.5984 0.5 14.5 0.598437 14.5 0.71875V2.25C14.5 2.37031 14.5984 2.46875 14.7188 2.46875ZM7.28125 19.5312H2.46875V14.7188C2.46875 14.5984 2.37031 14.5 2.25 14.5H0.71875C0.598437 14.5 0.5 14.5984 0.5 14.7188V19.6406C0.5 20.6688 1.33125 21.5 2.35938 21.5H7.28125C7.40156 21.5 7.5 21.4016 7.5 21.2812V19.75C7.5 19.6297 7.40156 19.5312 7.28125 19.5312ZM21.2812 14.5H19.75C19.6297 14.5 19.5312 14.5984 19.5312 14.7188V19.5312H14.7188C14.5984 19.5312 14.5 19.6297 14.5 19.75V21.2812C14.5 21.4016 14.5984 21.5 14.7188 21.5H19.6406C20.6688 21.5 21.5 20.6688 21.5 19.6406V14.7188C21.5 14.5984 21.4016 14.5 21.2812 14.5ZM21.7188 10.0156H0.28125C0.160937 10.0156 0.0625 10.1141 0.0625 10.2344V11.7656C0.0625 11.8859 0.160937 11.9844 0.28125 11.9844H21.7188C21.8391 11.9844 21.9375 11.8859 21.9375 11.7656V10.2344C21.9375 10.1141 21.8391 10.0156 21.7188 10.0156Z" fill="white"/>
</svg>
