<svg width="29" height="28" viewBox="0 0 29 28" fill="none" xmlns="http://www.w3.org/2000/svg">
<path d="M4 10.6283V17.36C4 19.8333 4 19.8333 6.33333 21.4083L12.75 25.1183C13.7183 25.6783 15.2933 25.6783 16.25 25.1183L22.6667 21.4083C25 19.8333 25 19.8333 25 17.3717V10.6283C25 8.16667 25 8.16667 22.6667 6.59167L16.25 2.88167C15.2933 2.32167 13.7183 2.32167 12.75 2.88167L6.33333 6.59167C4 8.16667 4 8.16667 4 10.6283Z" stroke="white" stroke-width="2" stroke-linecap="round" stroke-linejoin="round"/>
<path d="M14.5 17.5C16.433 17.5 18 15.933 18 14C18 12.067 16.433 10.5 14.5 10.5C12.567 10.5 11 12.067 11 14C11 15.933 12.567 17.5 14.5 17.5Z" stroke="white" stroke-width="2" stroke-linecap="round" stroke-linejoin="round"/>
</svg>
