<svg width="23" height="26" viewBox="0 0 23 26" fill="none" xmlns="http://www.w3.org/2000/svg">
<path d="M1 9.16667V15.8983C1 18.3717 1 18.3717 3.33333 19.9467L9.75 23.6567C10.7183 24.2167 12.2933 24.2167 13.25 23.6567L19.6667 19.9467C22 18.3717 22 18.3717 22 15.91V9.16667C22 6.705 22 6.705 19.6667 5.13L13.25 1.42C12.2933 0.86 10.7183 0.86 9.75 1.42L3.33333 5.13C1 6.705 1 6.705 1 9.16667Z" fill="white" stroke="white" stroke-width="2" stroke-linecap="round" stroke-linejoin="round"/>
<path d="M11.5 16.0383C13.433 16.0383 15 14.4713 15 12.5383C15 10.6053 13.433 9.03833 11.5 9.03833C9.567 9.03833 8 10.6053 8 12.5383C8 14.4713 9.567 16.0383 11.5 16.0383Z" fill="#2F1155" stroke="white" stroke-width="2" stroke-linecap="round" stroke-linejoin="round"/>
</svg>
