<svg width="29" height="28" viewBox="0 0 29 28" fill="none" xmlns="http://www.w3.org/2000/svg">
<path d="M10.9999 25.6667H17.9999C23.8333 25.6667 26.1666 23.3334 26.1666 17.5V10.5C26.1666 4.66671 23.8333 2.33337 17.9999 2.33337H10.9999C5.16659 2.33337 2.83325 4.66671 2.83325 10.5V17.5C2.83325 23.3334 5.16659 25.6667 10.9999 25.6667Z" stroke="white" stroke-width="2" stroke-linecap="round" stroke-linejoin="round"/>
<path d="M18.5833 21.5833C19.8667 21.5833 20.9167 20.5333 20.9167 19.25V8.74996C20.9167 7.46663 19.8667 6.41663 18.5833 6.41663C17.3 6.41663 16.25 7.46663 16.25 8.74996V19.25C16.25 20.5333 17.2883 21.5833 18.5833 21.5833Z" stroke="white" stroke-width="2" stroke-linecap="round" stroke-linejoin="round"/>
<path d="M10.4166 21.5834C11.6999 21.5834 12.7499 20.5334 12.7499 19.25V15.1667C12.7499 13.8834 11.6999 12.8334 10.4166 12.8334C9.13325 12.8334 8.08325 13.8834 8.08325 15.1667V19.25C8.08325 20.5334 9.12159 21.5834 10.4166 21.5834Z" stroke="white" stroke-width="2" stroke-linecap="round" stroke-linejoin="round"/>
</svg>
