<svg width="28" height="28" viewBox="0 0 28 28" fill="none" xmlns="http://www.w3.org/2000/svg">
<path d="M10.4999 25.6667H17.4999C23.3333 25.6667 25.6666 23.3334 25.6666 17.5V10.5C25.6666 4.66671 23.3333 2.33337 17.4999 2.33337H10.4999C4.66659 2.33337 2.33325 4.66671 2.33325 10.5V17.5C2.33325 23.3334 4.66659 25.6667 10.4999 25.6667Z" fill="white" stroke="white" stroke-width="2" stroke-linecap="round" stroke-linejoin="round"/>
<path d="M18.0833 21.5833C19.3667 21.5833 20.4167 20.5333 20.4167 19.25V8.74996C20.4167 7.46663 19.3667 6.41663 18.0833 6.41663C16.8 6.41663 15.75 7.46663 15.75 8.74996V19.25C15.75 20.5333 16.7883 21.5833 18.0833 21.5833Z" fill="#2F1155"/>
<path d="M9.91659 21.5834C11.1999 21.5834 12.2499 20.5334 12.2499 19.25V15.1667C12.2499 13.8834 11.1999 12.8334 9.91659 12.8334C8.63325 12.8334 7.58325 13.8834 7.58325 15.1667V19.25C7.58325 20.5334 8.62159 21.5834 9.91659 21.5834Z" fill="#2F1155"/>
</svg>
