<svg width="7" height="10" viewBox="0 0 7 10" fill="none" xmlns="http://www.w3.org/2000/svg">
<path d="M1.75048 5.8122C0.749839 6.48205 0.749839 7.57366 1.75048 8.23938C2.88758 9.0002 4.75242 9.0002 5.88952 8.23938C6.89016 7.56953 6.89016 6.47792 5.88952 5.8122C4.75655 5.05551 2.89172 5.05551 1.75048 5.8122Z" stroke="#828282" stroke-width="0.7" stroke-linecap="round" stroke-linejoin="round"/>
<path d="M3.81793 4.28642C3.77658 4.28229 3.72696 4.28229 3.68148 4.28642C2.69737 4.25334 1.91588 3.44704 1.91588 2.45466C1.91588 1.44161 2.73459 0.618767 3.75177 0.618767C4.76482 0.618767 5.58767 1.44161 5.58767 2.45466C5.58353 3.44704 4.80204 4.25334 3.81793 4.28642Z" stroke="#828282" stroke-width="0.7" stroke-linecap="round" stroke-linejoin="round"/>
</svg>
